<?xml version="1.0" encoding="utf-8"?>
<!-- Generator: Adobe Illustrator 19.1.0, SVG Export Plug-In . SVG Version: 6.00 Build 0)  -->
<svg version="1.1" id="Layer_2" xmlns="http://www.w3.org/2000/svg" xmlns:xlink="http://www.w3.org/1999/xlink" x="0px" y="0px"
	 viewBox="-297 389 16 16" enable-background="new -297 389 16 16" xml:space="preserve">
<path fill="#B37B2B" d="M-289,389c-4.4,0-8,3.6-8,8s3.6,8,8,8s8-3.6,8-8S-284.6,389-289,389z M-290.6,390.4c0.5-0.2,1-0.2,1.6-0.2
	c1.7,0,3.3,0.7,4.5,1.7l0,0l0,0c-0.1,0.2-1.1,1.6-3.5,2.5l0,0l0,0C-289.2,392.4-290.4,390.7-290.6,390.4L-290.6,390.4L-290.6,390.4z
	 M-295.7,395.6c0.4-2.1,1.9-3.9,3.8-4.8l0,0l0,0c0.2,0.2,1.4,1.9,2.5,3.9l0,0h-0.1c-2.8,0.9-5.4,0.9-6,0.9
	C-295.6,395.6-295.6,395.6-295.7,395.6L-295.7,395.6L-295.7,395.6z M-294,401.6L-294,401.6c-1.2-1.2-1.8-2.8-1.8-4.6
	c0-0.1,0-0.1,0-0.2l0,0l0,0c0,0,0.1,0,0.2,0c0.8,0,3.8-0.1,6.8-1l0,0l0,0c0.2,0.4,0.4,0.8,0.6,1.2l0,0l0,0c-0.1,0-0.2,0.1-0.3,0.1
	C-292,398.2-293.9,401.3-294,401.6L-294,401.6z M-286.3,403.3c-0.8,0.3-1.7,0.5-2.7,0.5c-1.6,0-3-0.5-4.2-1.4l0,0l0,0
	c0.1-0.3,1.5-2.9,5.4-4.3l0,0l0,0l0,0C-286.8,400.6-286.4,402.6-286.3,403.3L-286.3,403.3L-286.3,403.3z M-282.2,398.1
	c-0.3,1.9-1.4,3.5-2.9,4.6h-0.1v-0.1c-0.1-0.4-0.4-2.4-1.3-4.8l0,0l0,0c0.5-0.1,1-0.1,1.4-0.1C-283.6,397.6-282.5,398-282.2,398.1
	L-282.2,398.1L-282.2,398.1z M-285.4,396.7c-0.5,0-1,0-1.6,0.1l0,0l0,0c0-0.1-0.1-0.2-0.1-0.3c-0.1-0.3-0.3-0.7-0.5-1l0,0l0,0
	c2.5-1,3.6-2.5,3.8-2.7l0,0l0,0c1,1.2,1.5,2.6,1.5,4.3v0.1l0,0C-282.4,396.9-283.7,396.7-285.4,396.7z"/>
</svg>
