<?xml version="1.0" encoding="utf-8"?>
<!-- Generator: Adobe Illustrator 19.1.0, SVG Export Plug-In . SVG Version: 6.00 Build 0)  -->
<svg version="1.1" id="Layer_2" xmlns="http://www.w3.org/2000/svg" xmlns:xlink="http://www.w3.org/1999/xlink" x="0px" y="0px"
	 viewBox="0 0 287.4 287.4" enable-background="new 0 0 287.4 287.4" xml:space="preserve">
<g>
	<path fill="#B37B2C" d="M269,206.1c1.4,1.3,3.8,0.9,4.6-0.9c8.9-18.7,13.8-39.5,13.8-61.5c0-21.9-4.9-42.6-13.6-61.2
		c-0.8-1.8-3.2-2.2-4.6-0.9L204,142.4c-1.2,1.2-1.2,3.1,0,4.3L269,206.1z"/>
	<path fill="#B37B2C" d="M145.7,166.8L258.4,61.5c1.1-1,1.2-2.7,0.4-3.8C232.6,22.7,190.8,0,143.7,0C96.6,0,54.8,22.7,28.6,57.7
		c-0.9,1.2-0.7,2.8,0.4,3.8l112.7,105.3C142.8,167.8,144.6,167.8,145.7,166.8z"/>
	<path fill="#B37B2C" d="M18.3,81.6c-1.4-1.4-3.8-0.9-4.6,0.9C4.9,101.1,0,121.8,0,143.7c0,22,5,42.9,13.8,61.5
		c0.8,1.8,3.2,2.2,4.6,0.9l64.9-59.5c1.2-1.1,1.3-3.1,0-4.3L18.3,81.6z"/>
	<path fill="#B37B2C" d="M183.7,161.4l-38,35.5c-1.1,1-2.9,1-4,0l-38-35.5c-1.1-1-2.8-1-3.9,0l-70.6,64.7c-1.1,1-1.3,2.7-0.4,3.9
		c26.2,34.8,67.9,57.4,114.9,57.4c47,0,88.7-22.5,114.9-57.4c0.9-1.2,0.7-2.9-0.4-3.9l-70.6-64.7
		C186.5,160.4,184.8,160.4,183.7,161.4z"/>
</g>
</svg>
