<?xml version="1.0" encoding="utf-8"?>
<!-- Generator: Adobe Illustrator 19.1.0, SVG Export Plug-In . SVG Version: 6.00 Build 0)  -->
<svg version="1.1" id="Layer_2" xmlns="http://www.w3.org/2000/svg" xmlns:xlink="http://www.w3.org/1999/xlink" x="0px" y="0px"
	 viewBox="0 0 23.8 36.9" enable-background="new 0 0 23.8 36.9" xml:space="preserve">
<g>
	<g>
		<path fill="none" stroke="#B37B2B" stroke-width="0.3" stroke-miterlimit="10" d="M16.7,4.2L3.9,0C3.3-0.1,2.8,0.3,2.8,0.9v4.9
			c0,0.5,0.4,0.9,0.9,0.9h12.8c0.5,0,0.9-0.4,0.9-0.9V5C17.3,4.6,17,4.3,16.7,4.2z"/>
	</g>
	<g>
		<path fill="none" stroke="#B37B2B" stroke-width="0.3" stroke-miterlimit="10" d="M2.8,21.2V7.4c0-0.5-0.4-0.9-0.9-0.9H0.9
			C0.4,6.6,0,7,0,7.4v20.4c0,0.5,0.4,0.9,0.9,0.9h4.5c0.5,0,0.9-0.4,0.9-0.9v-4.3c0-0.4-0.2-0.7-0.6-0.8L3.4,22
			C3,21.9,2.8,21.5,2.8,21.2z"/>
	</g>
	<g>
		<path fill="none" stroke="#B37B2B" stroke-width="0.3" stroke-miterlimit="10" d="M19,8.8V7.4c0-0.5-0.4-0.9-0.9-0.9h0
			c-0.5,0-0.9,0.4-0.9,0.9v1.3c0,0.6,0.6,1,1.1,0.8l0,0C18.7,9.5,19,9.1,19,8.8z"/>
	</g>
	<g>
		<path fill="none" stroke="#B37B2B" stroke-width="0.3" stroke-miterlimit="10" d="M20.7,10.7V10c0-0.6-0.6-1-1.1-0.8l0,0
			C19.2,9.3,19,9.6,19,10v1.6c0,0.4,0.3,0.5,0.6,0.3l0.8-0.6C20.6,11.2,20.7,11,20.7,10.7z"/>
	</g>
	<g>
		<path fill="none" stroke="#B37B2B" stroke-width="0.3" stroke-miterlimit="10" d="M6.2,29.5v4.9c0,0.6,0.6,1,1.1,0.8l6.7-2.2
			c0.4-0.1,0.6-0.4,0.6-0.8v-2.7c0-0.5-0.4-0.9-0.9-0.9H7.1C6.6,28.7,6.2,29.1,6.2,29.5z"/>
	</g>
	<g>
		<path fill="none" stroke="#B37B2B" stroke-width="0.3" stroke-miterlimit="10" d="M17.3,13.2v-2.1c0-0.6-0.6-1-1.1-0.8l-9.3,3
			c-0.4,0.1-0.6,0.4-0.6,0.8v8.1c0,0.4,0.2,0.7,0.6,0.8l6.7,2.2c0.6,0.2,1.1-0.2,1.1-0.8V16c0-0.3,0.1-0.5,0.3-0.7l1.9-1.4
			C17.1,13.8,17.3,13.5,17.3,13.2z"/>
	</g>
	<g>
		<path fill="none" stroke="#B37B2B" stroke-width="0.3" stroke-miterlimit="10" d="M20.7,11.6v18.7c0,0.4-0.2,0.7-0.6,0.8l-4.9,1.6
			c-0.4,0.1-0.6,0.4-0.6,0.8V36c0,0.7,0.8,1.1,1.4,0.7l7.4-5.5c0.2-0.2,0.3-0.4,0.3-0.7v-20c0-0.7-0.8-1.1-1.4-0.7l-1.4,1
			C20.8,11,20.7,11.3,20.7,11.6z"/>
	</g>
	<g>
		<path fill="none" stroke="#B37B2B" stroke-width="0.3" stroke-miterlimit="10" d="M16.1,26.1L15.8,26c-0.6-0.2-1.1,0.2-1.1,0.8v1
			c0,0.5,0.4,0.9,0.9,0.9h2.6c0.5,0,0.9-0.4,0.9-0.9V13.1c0-0.4-0.3-0.5-0.6-0.3l-0.8,0.6c-0.2,0.2-0.3,0.4-0.3,0.7v11.2
			C17.3,25.8,16.7,26.3,16.1,26.1z"/>
	</g>
</g>
</svg>
