<?xml version="1.0" encoding="utf-8"?>
<!-- Generator: Adobe Illustrator 19.1.0, SVG Export Plug-In . SVG Version: 6.00 Build 0)  -->
<svg version="1.1" id="Layer_2" xmlns="http://www.w3.org/2000/svg" xmlns:xlink="http://www.w3.org/1999/xlink" x="0px" y="0px"
	 viewBox="0 0 287.4 287.4" enable-background="new 0 0 287.4 287.4" xml:space="preserve">
<g>
	<path fill="#B37B2C" d="M143.7,41.2c23.8,0,45.7,8.2,63.1,21.8L234,31.9C209.3,12,177.9,0,143.7,0c-34.2,0-65.6,12-90.3,31.9
		L80.6,63C98,49.4,119.9,41.2,143.7,41.2z"/>
	<path fill="#B37B2C" d="M242.4,39.3l-27.1,31c19.1,18.6,31,44.6,31,73.4c0,19.1-5.3,36.9-14.4,52.2l-56.4-54.3l-24.9-59.1v89.7
		l55.3,52.8c-17.3,13.2-38.7,21.1-62.1,21.1s-44.9-7.9-62.1-21.1l55.3-52.8V82.5L112,141.6l-56.4,54.3
		c-9.1-15.3-14.4-33.1-14.4-52.2c0-28.8,11.9-54.7,31-73.4L45,39.3C17.3,65.5,0,102.6,0,143.7C0,223,64.3,287.4,143.7,287.4
		c79.4,0,143.7-64.3,143.7-143.7C287.4,102.6,270.1,65.5,242.4,39.3z"/>
</g>
</svg>
